<?xml version="1.0" standalone="no"?>
<!DOCTYPE svg PUBLIC "-//W3C//DTD SVG 1.1//EN" "http://www.w3.org/Graphics/SVG/1.1/DTD/svg11.dtd">
<svg t="1591745905426" class="icon" viewBox="0 0 1024 1024" version="1.1" xmlns="http://www.w3.org/2000/svg" p-id="11517" xmlns:xlink="http://www.w3.org/1999/xlink" width="200" height="200">
<defs>
<style type="text/css">
</style>
</defs>
<path d="M512 546.133333c-136.533333 0-247.466667-110.933333-247.466667-247.466666S375.466667 51.2 512 51.2c136.533333 0 247.466667 110.933333 247.466667 247.466667s-110.933333 247.466667-247.466667 247.466666z m0-426.666666C413.866667 119.466667 332.8 200.533333 332.8 298.666667s81.066667 179.2 179.2 179.2c98.133333 0 179.2-81.066667 179.2-179.2S610.133333 119.466667 512 119.466667z" fill="#515151" p-id="11518" data-spm-anchor-id="a313x.7781069.0.i15" class="selected">
</path><path d="M896 1015.466667c-17.066667 0-34.133333-12.8-34.133333-34.133334 0-119.466667-59.733333-234.666667-162.133334-298.666666-21.333333-12.8-42.666667-25.6-64-34.133334-17.066667-4.266667-25.6-25.6-17.066666-42.666666 4.266667-17.066667 25.6-25.6 42.666666-17.066667 25.6 8.533333 51.2 21.333333 76.8 38.4 119.466667 76.8 192 209.066667 192 349.866667 0 21.333333-17.066667 38.4-34.133333 38.4z" fill="#FF5353" p-id="11519"></path><path d="M128 1015.466667c-17.066667 0-34.133333-12.8-34.133333-34.133334 0-230.4 187.733333-418.133333 418.133333-418.133333 17.066667 0 34.133333 12.8 34.133333 34.133333s-12.8 34.133333-34.133333 34.133334c-192 0-349.866667 157.866667-349.866667 349.866666 0 17.066667-17.066667 34.133333-34.133333 34.133334z" fill="#515151" p-id="11520" data-spm-anchor-id="a313x.7781069.0.i14" class="selected"></path></svg>