<?xml version="1.0" standalone="no"?><!DOCTYPE svg PUBLIC "-//W3C//DTD SVG 1.1//EN" "http://www.w3.org/Graphics/SVG/1.1/DTD/svg11.dtd"><svg t="1591745740102" class="icon" viewBox="0 0 1024 1024" version="1.1" xmlns="http://www.w3.org/2000/svg" p-id="4848" xmlns:xlink="http://www.w3.org/1999/xlink" width="200" height="200"><defs><style type="text/css"></style></defs><path d="M621.714286 475.428571c0-20.004571-16.566857-36.571429-36.571429-36.571428h-146.285714c-20.004571 0-36.571429 16.566857-36.571429 36.571428s16.566857 36.571429 36.571429 36.571429h146.285714c20.004571 0 36.571429-16.566857 36.571429-36.571429z m329.142857-109.714285v548.571428c0 20.004571-16.566857 36.571429-36.571429 36.571429H109.714286c-20.004571 0-36.571429-16.566857-36.571429-36.571429V365.714286c0-20.004571 16.566857-36.571429 36.571429-36.571429h804.571428c20.004571 0 36.571429 16.566857 36.571429 36.571429z m36.571428-256v146.285714c0 20.004571-16.566857 36.571429-36.571428 36.571429H73.142857c-20.004571 0-36.571429-16.566857-36.571428-36.571429V109.714286c0-20.004571 16.566857-36.571429 36.571428-36.571429h877.714286c20.004571 0 36.571429 16.566857 36.571428 36.571429z" fill="#515151" p-id="4849"></path></svg>